<svg width="96" height="96" xmlns="http://www.w3.org/2000/svg" xmlns:xlink="http://www.w3.org/1999/xlink" xml:space="preserve" overflow="hidden"><g transform="translate(-98 -378)"><path d="M135.002 403 162.002 403 162.002 407 135.002 407Z" fill="#0070C0"/><path d="M135.002 418 152.002 418 152.002 422 135.002 422Z" fill="#0070C0"/><path d="M157.002 418 162.002 418 162.002 422 157.002 422Z" fill="#0070C0"/><path d="M135.002 428 152.002 428 152.002 432 135.002 432Z" fill="#0070C0"/><path d="M157.002 428 162.002 428 162.002 432 157.002 432Z" fill="#0070C0"/><path d="M135.002 438 152.002 438 152.002 442 135.002 442Z" fill="#0070C0"/><path d="M157.002 438 162.002 438 162.002 442 157.002 442Z" fill="#0070C0"/><path d="M175 451 175 398C174.993 391.928 170.072 387.007 164 387L117 387C110.928 387.007 106.007 391.928 106 398L106 415 122 415 122 451 112 451 112 465 185 465 185 451ZM164 393C166.76 393.003 168.997 395.24 169 398L169 456 128 456 128 398C128.003 396.262 127.591 394.548 126.8 393ZM112 409 112 398C112 395.239 114.239 393 117 393 119.761 393 122 395.239 122 398L122 409Z" fill="#0070C0"/></g></svg>