<svg width="283" height="283" xmlns="http://www.w3.org/2000/svg" xmlns:xlink="http://www.w3.org/1999/xlink" xml:space="preserve" overflow="hidden"><g transform="translate(-33 -18)"><path d="M61.3 225.534C58.6966 225.534 56.5835 227.647 56.5835 230.251L56.5835 239.684C56.5835 242.287 58.6966 244.401 61.3 244.401 63.9034 244.401 66.0165 242.287 66.0165 239.684L66.0165 230.251C66.0165 227.647 63.9034 225.534 61.3 225.534Z" fill="#0070C0"/><path d="M61.3 253.834C58.6966 253.834 56.5835 255.947 56.5835 258.551L56.5835 267.984C56.5835 270.587 58.6966 272.701 61.3 272.701 63.9034 272.701 66.0165 270.587 66.0165 267.984L66.0165 258.551C66.0165 255.947 63.9034 253.834 61.3 253.834Z" fill="#0070C0"/><path d="M61.3 197.234C58.6966 197.234 56.5835 199.347 56.5835 201.951L56.5835 211.384C56.5835 213.987 58.6966 216.101 61.3 216.101 63.9034 216.101 66.0165 213.987 66.0165 211.384L66.0165 201.951C66.0165 199.347 63.9034 197.234 61.3 197.234Z" fill="#0070C0"/><path d="M80.1665 225.534C77.5631 225.534 75.45 227.647 75.45 230.251L75.45 239.684C75.45 242.287 77.5631 244.401 80.1665 244.401 82.7699 244.401 84.883 242.287 84.883 239.684L84.883 230.251C84.8835 227.647 82.7704 225.534 80.1665 225.534Z" fill="#0070C0"/><path d="M80.1665 197.234C77.5631 197.234 75.45 199.347 75.45 201.951L75.45 211.384C75.45 213.987 77.5631 216.101 80.1665 216.101 82.7699 216.101 84.883 213.987 84.883 211.384L84.883 201.951C84.8835 199.347 82.7704 197.234 80.1665 197.234Z" fill="#0070C0"/><path d="M80.1665 253.834C77.5631 253.834 75.45 255.947 75.45 258.551L75.45 267.984C75.45 270.587 77.5631 272.701 80.1665 272.701 82.7699 272.701 84.883 270.587 84.883 267.984L84.883 258.551C84.8835 255.947 82.7704 253.834 80.1665 253.834Z" fill="#0070C0"/><path d="M306.566 69.8835 297.133 69.8835 297.133 55.7335C297.133 53.1301 295.02 51.017 292.416 51.017L264.116 51.017C261.513 51.017 259.4 53.1301 259.4 55.7335L259.4 69.8835 249.966 69.8835C247.363 69.8835 245.25 71.9966 245.25 74.6L245.25 150.066 240.534 150.066 240.534 135.916C240.534 133.313 238.42 131.2 235.817 131.2L231.1 131.2 231.1 126.484C231.1 123.88 228.987 121.767 226.384 121.767 223.78 121.767 221.667 123.88 221.667 126.484L221.667 131.2 216.95 131.2C214.347 131.2 212.234 133.313 212.234 135.916L212.234 150.066 198.084 150.066 198.084 55.7335C198.084 53.1301 195.97 51.017 193.367 51.017L179.217 51.017 179.217 22.717C179.216 20.1131 177.103 18 174.5 18L117.9 18C115.297 18 113.184 20.1131 113.184 22.7165L113.184 51.0165 99.0335 51.0165C96.4301 51.0165 94.317 53.1296 94.317 55.733L94.317 178.366 84.8835 178.366 84.8835 164.216C84.8835 161.613 82.7704 159.5 80.167 159.5L51.867 159.5C49.2637 159.5 47.1506 161.613 47.1506 164.216L47.1506 178.366 42.4341 178.366C39.8307 178.366 37.7176 180.48 37.7176 183.083L37.7176 296.283C37.7176 298.886 39.8307 300.999 42.4341 300.999L99.0341 300.999 136.768 300.999 249.968 300.999 306.568 300.999C309.171 300.999 311.284 298.886 311.284 296.283L311.284 74.6C311.284 71.9966 309.17 69.8835 306.566 69.8835ZM169.784 74.6C169.784 71.9966 171.897 69.8835 174.5 69.8835 177.103 69.8835 179.216 71.9966 179.216 74.6L179.216 150.066 169.783 150.066 169.783 74.6ZM150.916 41.5835C150.916 38.9801 153.03 36.867 155.633 36.867 158.236 36.867 160.349 38.9801 160.349 41.5835L160.349 55.7335C160.349 58.3369 158.236 60.45 155.633 60.45 153.03 60.45 150.916 58.3369 150.916 55.7335L150.916 41.5835ZM150.916 74.6C150.916 71.9966 153.03 69.8835 155.633 69.8835 158.236 69.8835 160.349 71.9966 160.349 74.6L160.349 150.066 150.916 150.066 150.916 74.6ZM132.05 41.5835C132.05 38.9801 134.163 36.867 136.766 36.867 139.37 36.867 141.483 38.9801 141.483 41.5835L141.483 55.7335C141.483 58.3369 139.37 60.45 136.766 60.45 134.163 60.45 132.05 58.3369 132.05 55.7335L132.05 41.5835ZM113.184 74.6C113.184 71.9966 115.297 69.8835 117.9 69.8835 120.503 69.8835 122.616 71.9966 122.616 74.6L122.616 178.366 113.183 178.366 113.183 74.6ZM132.05 282.134 117.9 282.134C115.297 282.134 113.184 280.02 113.184 277.417 113.184 274.814 115.297 272.701 117.9 272.701L132.05 272.701 132.05 282.134ZM132.05 263.266 117.9 263.266C115.297 263.266 113.184 261.153 113.184 258.55 113.184 255.947 115.297 253.834 117.9 253.834L132.05 253.834 132.05 263.266ZM132.05 244.4 117.9 244.4C115.297 244.4 113.184 242.287 113.184 239.684 113.184 237.08 115.297 234.967 117.9 234.967L132.05 234.967 132.05 244.4ZM132.05 225.534 117.9 225.534C115.297 225.534 113.184 223.42 113.184 220.817 113.184 218.214 115.297 216.101 117.9 216.101L132.05 216.101 132.05 225.534ZM132.05 197.234 99.0335 197.234C96.4301 197.234 94.317 199.347 94.317 201.95L94.317 291.566 47.15 291.566 47.15 187.8 51.8665 187.8 80.1665 187.8 99.033 187.8 117.9 187.8 132.05 187.8 132.05 197.234ZM132.05 154.784 132.05 74.6C132.05 71.9966 134.163 69.8835 136.766 69.8835 139.37 69.8835 141.483 71.9966 141.483 74.6L141.483 150.066 136.766 150.066C134.163 150.066 132.05 152.18 132.05 154.784ZM245.25 291.566 235.816 291.566 235.816 173.65C235.816 171.047 233.703 168.934 231.1 168.934 228.497 168.934 226.384 171.047 226.384 173.65L226.384 291.566 216.95 291.566 216.95 173.65C216.95 171.047 214.837 168.934 212.234 168.934 209.63 168.934 207.517 171.047 207.517 173.65L207.517 291.566 198.084 291.566 198.084 173.65C198.084 171.047 195.97 168.934 193.367 168.934 190.764 168.934 188.651 171.047 188.651 173.65L188.651 291.566 179.217 291.566 179.217 173.65C179.217 171.047 177.104 168.934 174.501 168.934 171.897 168.934 169.784 171.047 169.784 173.65L169.784 291.566 160.35 291.566 160.35 173.65C160.35 171.047 158.237 168.934 155.634 168.934 153.03 168.934 150.917 171.047 150.917 173.65L150.917 291.566 141.484 291.566 141.484 277.416 141.484 258.55 141.484 239.684 141.484 220.817 141.484 201.95 141.484 183.084 141.484 159.5 155.634 159.5 174.5 159.5 193.366 159.5 216.95 159.5 235.816 159.5 245.25 159.5 245.25 291.566ZM273.55 273.62C273.55 276.223 271.437 278.336 268.833 278.336 266.23 278.336 264.117 276.223 264.117 273.62L264.117 264.186C264.117 261.583 266.23 259.47 268.833 259.47 271.437 259.47 273.55 261.583 273.55 264.186L273.55 273.62ZM273.55 245.32C273.55 247.923 271.437 250.036 268.833 250.036 266.23 250.036 264.117 247.923 264.117 245.32L264.117 235.886C264.117 233.283 266.23 231.17 268.833 231.17 271.437 231.17 273.55 233.283 273.55 235.886L273.55 245.32ZM273.55 217.02C273.55 219.623 271.437 221.736 268.833 221.736 266.23 221.736 264.117 219.623 264.117 217.02L264.117 207.586C264.117 204.983 266.23 202.87 268.833 202.87 271.437 202.87 273.55 204.983 273.55 207.586L273.55 217.02ZM273.55 188.72C273.55 191.323 271.437 193.436 268.833 193.436 266.23 193.436 264.117 191.323 264.117 188.72L264.117 179.286C264.117 176.683 266.23 174.57 268.833 174.57 271.437 174.57 273.55 176.683 273.55 179.286L273.55 188.72ZM273.55 160.42C273.55 163.023 271.437 165.136 268.833 165.136 266.23 165.136 264.117 163.023 264.117 160.42L264.117 150.986C264.117 148.383 266.23 146.27 268.833 146.27 271.437 146.27 273.55 148.383 273.55 150.986L273.55 160.42ZM273.55 132.12C273.55 134.723 271.437 136.836 268.833 136.836 266.23 136.836 264.117 134.723 264.117 132.12L264.117 122.686C264.117 120.083 266.23 117.97 268.833 117.97 271.437 117.97 273.55 120.083 273.55 122.686L273.55 132.12ZM273.55 103.82C273.55 106.423 271.437 108.536 268.833 108.536 266.23 108.536 264.117 106.423 264.117 103.82L264.117 94.3862C264.117 91.7829 266.23 89.6698 268.833 89.6698 271.437 89.6698 273.55 91.7829 273.55 94.3862L273.55 103.82ZM292.416 273.62C292.416 276.223 290.303 278.336 287.7 278.336 285.097 278.336 282.984 276.223 282.984 273.62L282.984 264.186C282.984 261.583 285.097 259.47 287.7 259.47 290.303 259.47 292.416 261.583 292.416 264.186L292.416 273.62ZM292.416 245.32C292.416 247.923 290.303 250.036 287.7 250.036 285.097 250.036 282.984 247.923 282.984 245.32L282.984 235.886C282.984 233.283 285.097 231.17 287.7 231.17 290.303 231.17 292.416 233.283 292.416 235.886L292.416 245.32ZM292.416 217.02C292.416 219.623 290.303 221.736 287.7 221.736 285.097 221.736 282.984 219.623 282.984 217.02L282.984 207.586C282.984 204.983 285.097 202.87 287.7 202.87 290.303 202.87 292.416 204.983 292.416 207.586L292.416 217.02ZM292.416 188.72C292.416 191.323 290.303 193.436 287.7 193.436 285.097 193.436 282.984 191.323 282.984 188.72L282.984 179.286C282.984 176.683 285.097 174.57 287.7 174.57 290.303 174.57 292.416 176.683 292.416 179.286L292.416 188.72ZM292.416 160.42C292.416 163.023 290.303 165.136 287.7 165.136 285.097 165.136 282.984 163.023 282.984 160.42L282.984 150.986C282.984 148.383 285.097 146.27 287.7 146.27 290.303 146.27 292.416 148.383 292.416 150.986L292.416 160.42ZM292.416 132.12C292.416 134.723 290.303 136.836 287.7 136.836 285.097 136.836 282.984 134.723 282.984 132.12L282.984 122.686C282.984 120.083 285.097 117.97 287.7 117.97 290.303 117.97 292.416 120.083 292.416 122.686L292.416 132.12ZM292.416 103.82C292.416 106.423 290.303 108.536 287.7 108.536 285.097 108.536 282.984 106.423 282.984 103.82L282.984 94.3862C282.984 91.7829 285.097 89.6698 287.7 89.6698 290.303 89.6698 292.416 91.7829 292.416 94.3862L292.416 103.82Z" fill="#0070C0"/></g></svg>