<svg width="96" height="96" xmlns="http://www.w3.org/2000/svg" xmlns:xlink="http://www.w3.org/1999/xlink" xml:space="preserve" overflow="hidden"><g transform="translate(-462 -378)"><path d="M548 449 545 452 476 452 472 448 472 428 476 424 545 424 548 427 548 449ZM466 418 466 458 554 458 554 418 466 418Z" fill="#0070C0"/><path d="M518 438C518 443.523 514.418 448 510 448 505.582 448 502 443.523 502 438 502 432.477 505.582 428 510 428 514.418 428 518 432.477 518 438Z" fill="#0070C0"/><path d="M488 438C488 439.657 486.657 441 485 441 483.343 441 482 439.657 482 438 482 436.343 483.343 435 485 435 486.657 435 488 436.343 488 438Z" fill="#0070C0"/><path d="M538 438C538 439.657 536.657 441 535 441 533.343 441 532 439.657 532 438 532 436.343 533.343 435 535 435 536.657 435 538 436.343 538 438Z" fill="#0070C0"/><path d="M527.9 398.7 529.4 402.5 535.4 401.3 531.2 390.8 477.4 412.8 508.2 406.7Z" fill="#0070C0"/><path d="M522.7 414 538.5 410.9 539.2 414 545.3 414 543.3 403.8 492 414Z" fill="#0070C0"/></g></svg>