<svg width="96" height="96" xmlns="http://www.w3.org/2000/svg" xmlns:xlink="http://www.w3.org/1999/xlink" xml:space="preserve" overflow="hidden"><g transform="translate(-259 -191)"><path d="M307 201C286 201 269 218 269 239 269 260 286 277 307 277 328 277 345 260 345 239 345 218 328 201 307 201ZM305 211C307.8 211 310 213.2 310 216 310 218.8 307.8 221 305 221 302.2 221 300 218.8 300 216 300 213.2 302.2 211 305 211ZM317 267 297 267 297 261 304 261 304 231 298 231 298 225 310 225 310 231 310 261 317 261 317 267Z" fill="#FFFFFF"/></g></svg>