<svg width="96" height="96" xmlns="http://www.w3.org/2000/svg" xmlns:xlink="http://www.w3.org/1999/xlink" xml:space="preserve" overflow="hidden"><g transform="translate(-585 -191)"><path d="M649 221C649 229.837 641.837 237 633 237 624.163 237 617 229.837 617 221 617 212.163 624.163 205 633 205 641.837 205 649 212.163 649 221Z" fill="#FFFFFF"/><path d="M665 273 665 257C665 254.6 663.8 252.2 661.8 250.6 657.4 247 651.8 244.6 646.2 243 642.2 241.8 637.8 241 633 241 628.6 241 624.2 241.8 619.8 243 614.2 244.6 608.6 247.4 604.2 250.6 602.2 252.2 601 254.6 601 257L601 273 665 273Z" fill="#FFFFFF"/></g></svg>