<svg width="96" height="96" xmlns="http://www.w3.org/2000/svg" xmlns:xlink="http://www.w3.org/1999/xlink" xml:space="preserve" overflow="hidden"><g transform="translate(-264 -385)"><path d="M295 416 284 416 284 409 295 409 295 416ZM310 409 310 416 299 416 299 409 310 409ZM325 409 325 416 314 416 314 409 325 409ZM340 409 340 416 329 416 329 409 340 409ZM340 427 329 427 329 420 340 420 340 427ZM340 435.5 329 436.5 329 431 340 431 340 435.5ZM295 431 295 439.5 284 440.5 284 431 295 431ZM295 427 284 427 284 420 295 420 295 427ZM310 427 299 427 299 420 310 420 310 427ZM314 427 314 420 325 420 325 427 314 427ZM310 438.2 299 439.2 299 431 310 431 310 438.2ZM314 431 325 431 325 436.8 314 437.8 314 431ZM346 441 346 403 284 403 284 402C284 397 280 393 275 393 273.3 393 272 394.3 272 396 272 397.7 273.3 399 275 399 276.7 399 278 400.3 278 402L278 452C278 457 282 461 287 461L290 461 334 461 343 461C344.7 461 346 459.7 346 458 346 456.3 344.7 455 343 455L287 455C285.3 455 284 453.7 284 452L284 446.5 346 441Z" fill="#0070C0"/><path d="M296 467C296 470.314 293.314 473 290 473 286.686 473 284 470.314 284 467 284 463.686 286.686 461 290 461 293.314 461 296 463.686 296 467Z" fill="#0070C0"/><path d="M340 467C340 470.314 337.314 473 334 473 330.686 473 328 470.314 328 467 328 463.686 330.686 461 334 461 337.314 461 340 463.686 340 467Z" fill="#0070C0"/></g></svg>