<svg width="269" height="270" xmlns="http://www.w3.org/2000/svg" xmlns:xlink="http://www.w3.org/1999/xlink" xml:space="preserve" overflow="hidden"><g transform="translate(-40 -344)"><path d="M198.051 252.188 70.9487 252.188C41.0501 252.188 16.8125 227.949 16.8125 198.051L16.8125 198.051C16.8159 184.682 21.7666 171.786 30.7108 161.848L113.092 70.2762 155.908 70.2762 238.289 161.848C247.233 171.786 252.184 184.682 252.188 198.051L252.188 198.051C252.188 227.949 227.949 252.188 198.051 252.188Z" stroke="#0070C0" stroke-width="21.4079" stroke-linecap="square" stroke-miterlimit="10" fill="none" transform="matrix(1 0 0 1.00372 40 344)"/><path d="M177.316 16.8125 172.945 39.2292C169.116 57.3871 153.057 70.3564 134.5 70.2762L134.5 70.2762C115.806 70.3131 99.6979 57.1171 96.0554 38.7808L91.6842 16.3642Z" stroke="#0070C0" stroke-width="21.4079" stroke-linecap="square" stroke-miterlimit="10" fill="none" transform="matrix(1 0 0 1.00372 40 344)"/><path d="M209.372 38.2204 166.556 59.6283" stroke="#0070C0" stroke-width="21.4079" stroke-linecap="square" stroke-miterlimit="10" fill="none" transform="matrix(1 0 0 1.00372 40 344)"/><path d="M220.132 70.2762 155.908 70.2762" stroke="#0070C0" stroke-width="21.4079" stroke-linecap="square" stroke-miterlimit="10" fill="none" transform="matrix(1 0 0 1.00372 40 344)"/><path d="M113.092 198.724 139.88 198.724C148.732 198.724 155.908 191.548 155.908 182.696L155.908 182.696C155.97 173.845 148.844 166.619 139.992 166.556 139.955 166.556 139.917 166.556 139.88 166.556L128.672 166.556C119.819 166.556 112.644 159.38 112.644 150.528L112.644 150.528C112.64 141.676 119.814 134.498 128.665 134.493 128.817 134.493 128.969 134.496 129.12 134.5L155.908 134.5" stroke="#0070C0" stroke-width="21.4079" stroke-linecap="square" stroke-miterlimit="10" fill="none" transform="matrix(1 0 0 1.00372 40 344)"/><path d="M134.5 123.852 134.5 134.5" stroke="#0070C0" stroke-width="21.4079" stroke-linecap="square" stroke-miterlimit="10" fill="none" transform="matrix(1 0 0 1.00372 40 344)"/><path d="M134.5 198.724 134.5 209.372" stroke="#0070C0" stroke-width="21.4079" stroke-linecap="square" stroke-miterlimit="10" fill="none" transform="matrix(1 0 0 1.00372 40 344)"/></g></svg>