<svg width="272" height="272" xmlns="http://www.w3.org/2000/svg" xmlns:xlink="http://www.w3.org/1999/xlink" xml:space="preserve" overflow="hidden"><g transform="translate(-933 -55)"><path d="M1204.78 313.445 1182.11 200.115C1181.05 194.823 1176.4 191.004 1170.99 191.004L1126.94 191.004C1127.85 189.599 1128.74 188.159 1129.64 186.754L1136.1 176.588C1144.1 163.94 1148.33 149.332 1148.33 134.338 1148.33 111.763 1138.67 90.1848 1121.81 75.1349 1104.97 60.0956 1082.3 52.8883 1059.73 55.5403 1024.47 59.5522 995.333 87.9525 990.459 123.062 987.57 143.87 992.771 164.53 1005.09 181.258 1007.43 184.42 1009.52 187.751 1011.74 191.004L967 191.004C961.605 191.004 956.959 194.823 955.894 200.116L933.227 313.445C932.559 316.777 933.42 320.222 935.573 322.852 937.726 325.47 940.934 327 944.334 327L1193.66 327C1197.06 327 1200.27 325.47 1202.43 322.852 1204.57 320.223 1205.44 316.777 1204.78 313.445ZM1069 100.339C1087.75 100.339 1103 115.594 1103 134.338 1103 153.083 1087.75 168.337 1069 168.337 1050.25 168.337 1035 153.083 1035 134.338 1035 115.594 1050.25 100.339 1069 100.339ZM958.16 304.334 976.293 213.669 1026.15 213.669C1026.18 213.726 1026.21 213.794 1026.25 213.851 1033.52 226.192 1040.28 238.829 1046.44 250.796 1049.05 255.907 1051.66 260.996 1054.25 266.175L1058.87 275.4C1060.79 279.242 1064.7 281.667 1069 281.667 1073.29 281.667 1077.21 279.242 1079.14 275.4L1088.91 255.862C1091.53 250.637 1094.31 245.458 1097.16 240.301 1097.98 238.828 1098.79 237.343 1099.61 235.893 1102.02 231.632 1104.49 227.382 1107.01 223.177 1108.96 219.913 1110.88 216.728 1112.78 213.668L1161.71 213.668 1179.85 304.333 958.16 304.333Z" fill="#0070C0"/><path d="M1069 145.672C1075.26 145.672 1080.33 140.595 1080.33 134.339 1080.33 128.083 1075.26 123.006 1069 123.006 1062.74 123.006 1057.67 128.083 1057.67 134.339 1057.67 140.595 1062.74 145.672 1069 145.672Z" fill="#0070C0"/></g></svg>